<?xml version="1.0" encoding="UTF-8"?>
<svg id="Layer_2" data-name="Layer 2" xmlns="http://www.w3.org/2000/svg" viewBox="0 0 452.86 508.36">
  <defs>
    <style>
      .cls-1 {
        fill: #000;
        stroke-width: 0px;
      }
    </style>
  </defs>
  <g id="Layer_1-2" data-name="Layer 1">
    <g>
      <path class="cls-1" d="M450.22,178.61c-21.42-2.05-47.36-1.75-57.37-1.68-11.68.08-.07-.4-47.22.18-4.3.05-6.84-4.79-4.36-8.3,45.68-64.51,67.85-94.07,108.39-149.37,5.01-6.84,3.49-15.21-5.17-15.26-4.19-.02-11.01.12-18.36.13-6.41,0-12.38,3.22-15.94,8.55l-109.88,164.32c-1.29,1.94-3.43,3.14-5.75,3.27-26.63,1.55-56.33,5.82-79.79,7.76-1.94.16-3.2-2-2.11-3.61,23.44-34.73,85.64-137.96,114.05-171.24,2.45-2.87,1.21-8.33-3.6-8.33l-1.35-.06c-126.44-7.18-127.35-7.49-219.48,5.1l-.82.18c-2.86.82-6.18,2.74-7.76,4.69-5.34,6.57-10.75,15.76-5.25,17.52,6.51,2.09,58.33-12.31,122.45-12.7,31.21-.19,63.3,2,65.71,7.19,3.66,7.85-84.11,140.01-100.96,161.09-1.46,1.82-3.56,3-5.87,3.31-20.26,2.73-117.02,12.01-163.93,17.28-7.03.79-8.05,10.61-1.31,12.78,12.92,4.15,26.54,10.87,39.03,21.63,31.9,27.49,46.48,72.76,39.42,119.47-1.13,7.45,8.57,11.3,12.8,5.06,29.63-43.76,84.6-128.89,95.2-143.92,1.02-1.45,2.62-2.37,4.38-2.53,24.37-2.25,45.92-3.65,68.58-5.29,4.49-.33,7.39,4.66,4.89,8.4L95.44,493.83c-4.15,6.21.3,14.53,7.76,14.53h28.26c5.89,0,11.35-3.12,14.33-8.2,34.79-59.19,121.36-217.82,165.27-284.78,1.53-2.34,4.05-3.84,6.84-4.09,25.94-2.31,42.72-3.59,60.97-4.51,15.43-.77,33.84-1.01,46.36-.75,16.32.34,34.53-26.52,25-27.43ZM148.96,230.74c-9.78,13.6-39.19,52.94-39.19,52.94-.54.89-1.34.31-1.73-.65-3.58-8.9-5.33-16.35-9.83-24.1-8.13-14.03-11.97-15.39-15.81-20.34-1.51-1.95-1.52-4.1,1.43-4.53,13.47-1.95,48.41-5.27,62.79-7.19,2.14-.29,3.59,2.12,2.33,3.88ZM415.05,185.03c-.85-.12-2.86-.37-4.27-.38h-.2c-4.24-.03-4.57,1.4-5.27,4.61l-.79,3.5c-.7,3.21-.91,4.64,3.24,4.67h.2c1.4.01,2.96-.15,4.12-.38.97-.14.78,2.08.47,3.48-.18,1.02-3.46,1.35-4.69,1.34h-.2c-8.51-.06-10.1-2.12-8.74-8.28l1.15-5.25c1.36-6.16,3.39-8.19,10.53-8.14h.2c1.23,0,6.14.37,5.92,1.42-.42,1.87-1.05,3.5-1.69,3.41ZM436.01,188.6l-1.15,5.22c-1.36,6.16-3.89,8.22-10.12,8.17h-.23c-6.23-.05-9.75-2.15-8.39-8.31l1.15-5.22c1.36-6.16,3.83-8.19,10.06-8.14h.23c6.23.05,9.81,2.12,8.45,8.28Z"/>
      <path class="cls-1" d="M427.5,185.06h-.23c-3.3-.03-4.07,1.05-4.65,3.74l-1.03,4.64c-.6,2.69-.32,3.8,2.98,3.82h.23c3.3.03,4.1-.99,4.71-3.77l1.03-4.64c.58-2.69.26-3.77-3.04-3.79Z"/>
    </g>
  </g>
</svg>